<svg xmlns="http://www.w3.org/2000/svg" xmlns:xlink="http://www.w3.org/1999/xlink" viewBox="0 0 64 64"><defs><style>.cls-1{fill:url(#linear-gradient);}.cls-2{fill:#eb7f58;}.cls-3{fill:url(#linear-gradient-2);}.cls-4{fill:url(#linear-gradient-3);}.cls-5{fill:url(#linear-gradient-4);}.cls-6{fill:url(#linear-gradient-5);}.cls-7{fill:#0668cb;}.cls-8{fill:#54a5ff;}.cls-9{fill:#8ad3fe;}.cls-10{fill:#4795ea;}</style><linearGradient id="linear-gradient" x1="20" y1="32" x2="44" y2="32" gradientUnits="userSpaceOnUse"><stop offset="0" stop-color="#fe9661"/><stop offset="1" stop-color="#ffb369"/></linearGradient><linearGradient id="linear-gradient-2" x1="13" y1="32" x2="47.54" y2="32" gradientUnits="userSpaceOnUse"><stop offset="0" stop-color="#d3e6f5"/><stop offset="1" stop-color="#f0f7fc"/></linearGradient><linearGradient id="linear-gradient-3" x1="38.83" y1="26.52" x2="51" y2="26.52" xlink:href="#linear-gradient-2"/><linearGradient id="linear-gradient-4" x1="6" y1="35.68" x2="22.19" y2="35.68" xlink:href="#linear-gradient-2"/><linearGradient id="linear-gradient-5" x1="16.95" y1="32.01" x2="58" y2="32.01" xlink:href="#linear-gradient-2"/></defs><title>Astronomi</title><g id="Astronomi"><path class="cls-1" d="M44,32a6.19,6.19,0,0,0-3.51,8.49A6.19,6.19,0,0,0,32,44a6.19,6.19,0,0,0-8.49-3.51A6.19,6.19,0,0,0,20,32a6.19,6.19,0,0,0,3.51-8.49A6.19,6.19,0,0,0,32,20a6.19,6.19,0,0,0,8.49,3.51A6.19,6.19,0,0,0,44,32Z"/><circle class="cls-2" cx="32" cy="32" r="6"/><path class="cls-3" d="M13,32A19,19,0,0,1,36.3,13.5a1,1,0,0,1-.46,1.94A17,17,0,0,0,15,32c0,16.32,21,23.31,30.72,10a1,1,0,0,1,1.62,1.18C36.5,58,13,50.28,13,32Z"/><path class="cls-4" d="M48.26,37A17,17,0,0,0,39.4,16.7a1,1,0,0,1,.86-1.8,19.05,19.05,0,0,1,9.92,22.65A1,1,0,0,1,48.26,37Z"/><path class="cls-5" d="M20.76,55.44a26,26,0,0,1-9.4-39.24,1,1,0,0,1,1.58,1.22,24,24,0,0,0,8.68,36.22A1,1,0,0,1,20.76,55.44Z"/><path class="cls-6" d="M25.64,57.21a1,1,0,0,1,.5-1.94A24,24,0,0,0,56,32C56,12.62,34.23,1.46,18.52,12.14a1,1,0,0,1-1.12-1.66C34.42-1.09,58,11,58,32A26,26,0,0,1,25.64,57.21Z"/><circle class="cls-7" cx="15" cy="14" r="4"/><circle class="cls-8" cx="48" cy="40" r="3"/><circle class="cls-9" cx="23.5" cy="55.5" r="2.5"/><circle class="cls-10" cx="38" cy="15" r="2"/></g></svg>