<svg xmlns="http://www.w3.org/2000/svg" xmlns:xlink="http://www.w3.org/1999/xlink" viewBox="0 0 64 64"><defs><style>.cls-1{fill:#d7e9f7;}.cls-2{fill:#8ad3fe;}.cls-3{fill:#ffb369;}.cls-4{fill:url(#linear-gradient);}.cls-5{fill:url(#linear-gradient-2);}.cls-6{fill:#b4cde1;}</style><linearGradient id="linear-gradient" x1="29" y1="32" x2="35" y2="32" gradientUnits="userSpaceOnUse"><stop offset="0" stop-color="#54a5ff"/><stop offset="1" stop-color="#8ad3fe"/></linearGradient><linearGradient id="linear-gradient-2" x1="45" y1="16" x2="49" y2="16" gradientUnits="userSpaceOnUse"><stop offset="0" stop-color="#fe9661"/><stop offset="1" stop-color="#ffb369"/></linearGradient></defs><title>Physics</title><g id="Physics"><path class="cls-1" d="M41.82,26.32c-.68-.45-1.38-.9-2.09-1.34-.23-3-.69-6-.93-7.35C37.11,8.23,34.2,4,32,4s-5.11,4.22-6.8,13.63c-.64-.26-1.28-.49-1.91-.72C25,7.54,28.26,2,32,2,38.94,2,41.39,19,41.82,26.32Z"/><path class="cls-1" d="M24.55,52.35c-2.1-7.07-2.77-16.15-2.49-23.55.37-.25,1.69-1.14,2.06-1.36-.4,7.63.18,17.09,2.35,24.33A1,1,0,0,1,24.55,52.35Z"/><path class="cls-1" d="M25.2,17.63a79.36,79.36,0,0,0-1.08,9.81c-.37.22-1.69,1.11-2.06,1.36a81.36,81.36,0,0,1,1.23-11.89C23.92,17.14,24.56,17.37,25.2,17.63Z"/><path class="cls-1" d="M40.71,47.09C37.32,65.24,29.79,64.93,26,56.2a1,1,0,1,1,1.82-.8C34.28,70,41.45,47,39.73,25c.71.44,1.41.89,2.09,1.34A89.2,89.2,0,0,1,40.71,47.09Z"/><path class="cls-2" d="M53.68,36.06C48.08,30,39.24,24.22,32,20.66c-.26.11-1.62.81-2.23,1.14,21.87,10.34,37.89,29.73,17,25A64.79,64.79,0,0,1,32,41.1c-.65.35-1.49.75-2.21,1.1,5.95,3.21,15.49,7.27,22.24,7.27S61.79,44.85,53.68,36.06Z"/><path class="cls-2" d="M32,41.1c-.65.35-1.49.75-2.21,1.1A86.45,86.45,0,0,1,14.58,32C-3.64,16.42,7,8.16,32,20.66c-.26.11-1.62.81-2.23,1.14A61.75,61.75,0,0,0,17.2,17.21C-2.92,12.68,11.1,30.34,32,41.1Z"/><path class="cls-3" d="M40.71,16.92c1.42-.5,2.81-.93,4.13-1.29a1,1,0,0,1,.52,1.94c-1.38.36-2.83.82-4.32,1.36C41,18.49,40.78,17.33,40.71,16.92Z"/><path class="cls-3" d="M23.29,47.06C4.17,53.86-.82,45.17,14.58,32c.51.43,1,.87,1.57,1.3C8.85,39.46,6.65,44.1,7.76,46S14,48.32,23,45.06C23,45.55,23.2,46.57,23.29,47.06Z"/><path class="cls-3" d="M39.12,19.65A88.56,88.56,0,0,0,17.74,32c-.55-.43-1.09-.86-1.6-1.3A90.31,90.31,0,0,1,38.8,17.63C38.84,17.85,39,19,39.12,19.65Z"/><path class="cls-3" d="M49.42,32A89.08,89.08,0,0,1,25.2,46.37c-.08-.42-.23-1.33-.32-2,23.05-9,42.89-30.4,24.26-27.56a1,1,0,0,1-.3-2C59.66,13.18,63.43,20,49.42,32Z"/><circle class="cls-4" cx="32" cy="32" r="3"/><circle class="cls-5" cx="47" cy="16" r="2"/><circle class="cls-6" cx="26" cy="54" r="2"/></g></svg>